<?xml version="1.0" encoding="UTF-8"?>
<svg id="_レイヤー_1" data-name="レイヤー 1" xmlns="http://www.w3.org/2000/svg" viewBox="0 0 320.1 500.2">
  <defs>
    <style>
      .cls-1 {
        fill: #fff;
        stroke: #dec539;
        stroke-linecap: round;
        stroke-miterlimit: 10;
        stroke-width: 18px;
      }
    </style>
  </defs>
  <path class="cls-1" d="M311.1,160.1c0-82.8-66.7-150.1-149.3-151.1C79.7,8.1,11.3,73.7,9.1,155.8s21.6,94.8,58,123.3c9.8,7.6,15.6,19.2,15.6,31.6v.5h154.8c0-12.7,5.9-24.5,15.8-32.2,35.2-27.7,57.8-70.6,57.8-118.8Z"/>
  <rect class="cls-1" x="82.7" y="332.9" width="154.8" height="38.3"/>
  <path class="cls-1" d="M93.2,431.1h133.7c5.8,0,10.6-4.7,10.6-10.6v-27.8H82.7v27.8c0,5.8,4.7,10.6,10.6,10.6Z"/>
  <rect class="cls-1" x="131.4" y="452.8" width="57.4" height="38.3" rx="10.3" ry="10.3"/>
</svg>