<?xml version="1.0" encoding="UTF-8"?>
<svg id="_レイヤー_1" data-name="レイヤー 1" xmlns="http://www.w3.org/2000/svg" viewBox="0 0 633.7 327.3">
  <defs>
    <style>
      .cls-1 {
        fill: none;
        stroke: #32b1e7;
        stroke-linecap: round;
        stroke-miterlimit: 10;
        stroke-width: 21px;
      }
    </style>
  </defs>
  <line class="cls-1" x1="10.5" y1="125.1" x2="10.5" y2="202.2"/>
  <line class="cls-1" x1="54.3" y1="74.8" x2="54.3" y2="252.6"/>
  <line class="cls-1" x1="98" y1="18" x2="98" y2="309.3"/>
  <line class="cls-1" x1="141.8" y1="71.6" x2="141.8" y2="255.8"/>
  <line class="cls-1" x1="185.5" y1="118.1" x2="185.5" y2="209.2"/>
  <line class="cls-1" x1="229.3" y1="35.5" x2="229.3" y2="291.8"/>
  <line class="cls-1" x1="273.1" y1="109.6" x2="273.1" y2="217.8"/>
  <line class="cls-1" x1="623.2" y1="125.1" x2="623.2" y2="202.2"/>
  <line class="cls-1" x1="579.4" y1="74.8" x2="579.4" y2="252.6"/>
  <line class="cls-1" x1="535.6" y1="18" x2="535.6" y2="309.3"/>
  <line class="cls-1" x1="491.9" y1="71.6" x2="491.9" y2="255.8"/>
  <line class="cls-1" x1="448.1" y1="118.1" x2="448.1" y2="209.2"/>
  <line class="cls-1" x1="404.4" y1="10.5" x2="404.4" y2="316.8"/>
  <line class="cls-1" x1="360.6" y1="109.6" x2="360.6" y2="217.8"/>
  <line class="cls-1" x1="316.8" y1="71.6" x2="316.8" y2="255.8"/>
</svg>